HIERARCHY
ROOT Hips
{
	OFFSET 0.00000 0.00000 0.00000
	CHANNELS 6 Xposition Yposition Zposition Zrotation Yrotation Xrotation 
	JOINT LHipJoint
	{
		OFFSET 0 0 0
		CHANNELS 3 Zrotation Yrotation Xrotation
		JOINT LeftUpLeg
		{
			OFFSET 1.55020 -1.87941 0.79896
			CHANNELS 3 Zrotation Yrotation Xrotation
			JOINT LeftLeg
			{
				OFFSET 2.65269 -7.28822 0.00000
				CHANNELS 3 Zrotation Yrotation Xrotation
				JOINT LeftFoot
				{
					OFFSET 2.61200 -7.17641 0.00000
					CHANNELS 3 Zrotation Yrotation Xrotation
					JOINT LeftToeBase
					{
						OFFSET 0.09338 -0.25656 1.92461
						CHANNELS 3 Zrotation Yrotation Xrotation
						End Site
						{
							OFFSET 0.00000 -0.00000 0.98480
						}
					}
				}
			}
		}
	}
	JOINT RHipJoint
	{
		OFFSET 0 0 0
		CHANNELS 3 Zrotation Yrotation Xrotation
		JOINT RightUpLeg
		{
			OFFSET -1.56866 -1.87941 0.79895
			CHANNELS 3 Zrotation Yrotation Xrotation
			JOINT RightLeg
			{
				OFFSET -2.60199 -7.14892 0.00000
				CHANNELS 3 Zrotation Yrotation Xrotation
				JOINT RightFoot
				{
					OFFSET -2.62841 -7.22151 0.00000
					CHANNELS 3 Zrotation Yrotation Xrotation
					JOINT RightToeBase
					{
						OFFSET -0.19532 -0.53663 1.93132
						CHANNELS 3 Zrotation Yrotation Xrotation
						End Site
						{
							OFFSET -0.00000 -0.00000 1.00896
						}
					}
				}
			}
		}
	}
	JOINT LowerBack
	{
		OFFSET 0 0 0
		CHANNELS 3 Zrotation Yrotation Xrotation
		JOINT Spine
		{
			OFFSET 0.06381 2.07806 -0.22112
			CHANNELS 3 Zrotation Yrotation Xrotation
			JOINT Spine1
			{
				OFFSET -0.02881 2.08890 0.01825
				CHANNELS 3 Zrotation Yrotation Xrotation
				JOINT Neck
				{
					OFFSET 0 0 0
					CHANNELS 3 Zrotation Yrotation Xrotation
					JOINT Neck1
					{
						OFFSET 0.02418 1.74325 -0.02023
						CHANNELS 3 Zrotation Yrotation Xrotation
						JOINT Head
						{
							OFFSET -0.01704 1.71677 0.04090
							CHANNELS 3 Zrotation Yrotation Xrotation
							End Site
							{
								OFFSET -0.00946 1.78238 0.01684
							}
						}
					}
				}
				JOINT LeftShoulder
				{
					OFFSET 0 0 0
					CHANNELS 3 Zrotation Yrotation Xrotation
					JOINT LeftArm
					{
						OFFSET 3.39783 1.34157 0.16610
						CHANNELS 3 Zrotation Yrotation Xrotation
						JOINT LeftForeArm
						{
							OFFSET 5.15218 -0.00000 0.00000
							CHANNELS 3 Zrotation Yrotation Xrotation
							JOINT LeftHand
							{
								OFFSET 3.49459 -0.00000 0.00000
								CHANNELS 3 Zrotation Yrotation Xrotation
								JOINT LeftFingerBase
								{
									OFFSET 0 0 0
									CHANNELS 3 Zrotation Yrotation Xrotation
									JOINT LeftHandIndex1
									{
										OFFSET 0.51247 -0.00000 0.00000
										CHANNELS 3 Zrotation Yrotation Xrotation
										End Site
										{
											OFFSET 0.41316 -0.00000 0.00000
										}
									}
								}
								JOINT LThumb
								{
									OFFSET 0 0 0
									CHANNELS 3 Zrotation Yrotation Xrotation
									End Site
									{
										OFFSET 0.41947 -0.00000 0.41947
									}
								}
							}
						}
					}
				}
				JOINT RightShoulder
				{
					OFFSET 0 0 0
					CHANNELS 3 Zrotation Yrotation Xrotation
					JOINT RightArm
					{
						OFFSET -3.26224 1.05509 0.01188
						CHANNELS 3 Zrotation Yrotation Xrotation
						JOINT RightForeArm
						{
							OFFSET -5.44344 -0.00000 0.00000
							CHANNELS 3 Zrotation Yrotation Xrotation
							JOINT RightHand
							{
								OFFSET -3.58403 -0.00000 0.00000
								CHANNELS 3 Zrotation Yrotation Xrotation
								JOINT RightFingerBase
								{
									OFFSET 0 0 0
									CHANNELS 3 Zrotation Yrotation Xrotation
									JOINT RightHandIndex1
									{
										OFFSET -0.34249 -0.00000 0.00000
										CHANNELS 3 Zrotation Yrotation Xrotation
										End Site
										{
											OFFSET -0.27612 -0.00000 0.00000
										}
									}
								}
								JOINT RThumb
								{
									OFFSET 0 0 0
									CHANNELS 3 Zrotation Yrotation Xrotation
									End Site
									{
										OFFSET -0.28034 -0.00000 0.28034
									}
								}
							}
						}
					}
				}
			}
		}
	}
}
MOTION
Frames: 14
Frame Time: .0083333
-4.5598 16.8153 -0.1161 -534.3280 107.4770 -179.6710 0.0000 0.0000 0.0000 -25.0654 -10.5873 -0.4992 7.6969 15.8917 51.4634 -2.1819 -25.1211 7.8223 0.3108 3.5841 9.9095 0.0000 0.0000 0.0000 7.5936 27.8372 -23.7197 -1.9365 -8.7325 24.9620 2.2658 25.5507 11.9501 -2.6614 10.1256 -29.3844 -1.4101 -4.5267 15.3992 -1.0277 -6.1054 3.7722 0.8603 -2.9355 -4.5507 10.9820 9.3190 3.7036 -2.1570 12.8684 8.6203 -2.2998 6.7244 3.1161 -0.0000 -0.0000 0.0000 -63.8401 -19.7313 13.0972 72.7090 -58.8396 -45.0839 -0.0000 0.0000 -25.4644 14.2225 27.1484 6.5970 -7.1250 0.0000 -0.0000 -17.5707 56.9832 -5.2704 -0.0000 -0.0000 0.0000 75.1781 -24.1491 -8.9000 -26.7414 37.9314 -9.3397 0.0000 -0.0000 -6.9150 -19.7578 -34.0765 11.3790 7.1250 -0.0000 -0.0000 16.7670 -64.9447 -8.1958
-4.7740 16.7843 -0.2786 -537.1450 109.2820 -182.2810 0.0000 0.0000 0.0000 -24.6868 -7.5862 -0.6056 7.3450 15.6157 50.1675 -0.7087 -23.9133 -11.4791 3.8238 -11.9222 -35.4573 0.0000 0.0000 0.0000 9.1665 26.5785 -24.9437 -1.8025 -8.4420 24.0649 1.8032 23.9722 16.8043 -1.7438 8.3107 -23.6620 -0.9426 -4.9647 15.6253 -0.6805 -6.5946 3.7898 1.0749 -3.1789 -4.6550 11.5313 9.6877 3.5777 -2.8055 13.3997 9.0839 -2.5625 7.0006 3.4505 -0.0000 -0.0000 0.0000 -64.0003 -19.6415 12.1296 71.9069 -58.7262 -44.3979 -0.0000 0.0000 -25.4178 15.2507 27.5408 7.1851 -7.1250 0.0000 -0.0000 -16.7510 57.5772 -5.2568 -0.0000 -0.0000 0.0000 75.7610 -25.0774 -9.4020 -27.6684 38.8092 -9.9152 0.0000 -0.0000 -6.0808 -20.5513 -33.9567 11.8274 7.1250 -0.0000 -0.0000 15.7259 -65.0514 -7.7135
-4.9998 16.8144 -0.4514 -536.6350 111.0920 -181.4360 0.0000 0.0000 0.0000 -25.4663 -6.8558 -1.2123 6.8075 15.1677 48.1426 -1.8768 -25.7226 -1.8453 1.0197 6.4241 18.0199 0.0000 0.0000 0.0000 9.6474 24.9609 -26.4735 -1.7148 -8.2448 23.4603 1.2956 22.0127 19.0624 -1.6750 8.1535 -23.1814 -1.5238 -5.2980 16.0645 -0.4706 -7.1369 3.4714 1.7769 -3.4317 -5.1195 12.2085 9.9294 4.1690 -4.1699 13.9184 9.3111 -2.8134 7.2390 3.2701 0.0000 -0.0000 0.0000 -64.4099 -19.0859 11.1861 71.2903 -58.6351 -43.8712 -0.0000 0.0000 -25.8346 16.2146 27.2708 7.5897 -7.1250 0.0000 -0.0000 -15.5840 57.5229 -4.8576 0.0000 -0.0000 0.0000 75.9707 -25.9888 -9.4473 -28.5607 39.6273 -10.4793 0.0000 -0.0000 -4.9290 -21.3302 -34.0745 12.3408 7.1250 -0.0000 -0.0000 14.9113 -65.3830 -7.4197
-5.2201 16.8341 -0.6223 -535.3590 112.9560 -179.7130 0.0000 0.0000 0.0000 -26.5492 -6.4763 -1.8718 6.3512 14.7603 46.3755 -1.8166 -26.4818 -4.1555 1.1057 6.6812 18.7743 0.0000 0.0000 0.0000 9.8052 23.4473 -28.2883 -1.7333 -8.2870 23.5891 0.7710 18.5811 18.1892 -2.1947 9.2603 -26.6130 -2.2832 -5.5606 16.3607 -0.3811 -7.6332 3.0690 2.4388 -3.6540 -5.5782 12.8544 10.1428 4.6671 -5.2653 14.3674 9.3888 -3.2280 7.4640 3.3751 0.0000 0.0000 0.0000 -64.7343 -18.3719 10.3369 70.9256 -58.5796 -43.5599 -0.0000 0.0000 -26.7521 17.2145 27.6140 8.1724 -7.1250 0.0000 -0.0000 -14.7398 58.0740 -4.7832 0.0000 0.0000 0.0000 76.2069 -26.5336 -9.6159 -29.1724 40.1733 -10.8717 0.0000 -0.0000 -3.1169 -21.9173 -33.5709 12.5432 7.1250 -0.0000 -0.0000 13.7606 -65.0606 -6.7343
-5.4188 16.8516 -0.7843 -535.3280 115.2270 -179.0980 0.0000 0.0000 0.0000 -27.0142 -5.9544 -2.8738 6.0117 14.4396 45.0285 -1.2911 -26.4015 -9.2691 0.3644 3.8780 10.7336 0.0000 0.0000 0.0000 10.2549 23.1704 -29.3133 -1.9050 -8.6653 24.7537 0.6381 15.4216 12.7078 -3.6766 11.7171 -34.7384 -2.4890 -5.7222 16.2014 -0.2388 -7.8862 2.8356 2.7472 -3.7741 -5.6803 13.2693 10.3840 4.9929 -6.3168 14.8205 9.2748 -3.5923 7.6796 3.4365 -0.0000 -0.0000 0.0000 -64.9760 -17.6829 9.3737 70.9174 -58.5783 -43.5528 -0.0000 0.0000 -27.6022 17.7316 28.2191 8.5975 -7.1250 0.0000 -0.0000 -14.5589 58.7803 -4.9711 -0.0000 -0.0000 0.0000 76.4874 -26.7107 -9.5684 -29.8619 40.7747 -11.3193 0.0000 -0.0000 -1.2791 -22.8103 -33.6382 13.1145 7.1250 -0.0000 -0.0000 12.7452 -65.3774 -6.3229
-5.6209 16.8647 -0.9408 -535.3870 117.5240 -178.5660 0.0000 0.0000 0.0000 -27.3068 -5.5542 -4.5865 5.9422 14.3721 44.7493 -1.1565 -25.7759 -9.6770 0.6625 5.2058 14.4965 0.0000 0.0000 0.0000 10.2926 24.1384 -30.0598 -2.2097 -9.2899 26.7065 0.3702 11.4206 8.4453 -3.0509 10.7771 -31.5316 -2.5730 -5.8752 15.9224 -0.1554 -8.0973 2.7921 2.8909 -3.8832 -5.5400 13.3286 10.7393 4.7611 -7.0736 15.3214 9.1742 -3.7805 7.9024 3.5533 0.0000 -0.0000 0.0000 -65.1298 -17.0913 8.1869 71.0923 -58.6051 -43.7021 -0.0000 0.0000 -28.1610 18.1149 28.2233 8.7943 -7.1250 0.0000 -0.0000 -14.1516 58.8711 -4.8594 0.0000 -0.0000 0.0000 76.8652 -26.4043 -9.1655 -30.6762 41.4660 -11.8549 0.0000 -0.0000 -0.0074 -22.9959 -33.3428 13.1303 7.1250 -0.0000 -0.0000 12.2700 -65.1399 -6.0165
-5.8279 16.8575 -1.0909 -535.3460 119.6400 -178.0300 0.0000 0.0000 0.0000 -27.6832 -5.7572 -6.3096 5.9786 14.4076 44.8959 -0.9600 -24.3947 -9.7973 0.8957 6.0320 16.8773 0.0000 0.0000 0.0000 10.2153 25.1967 -30.7859 -2.7247 -10.2355 29.7426 0.1452 6.7675 3.1137 -2.0571 8.9841 -25.7456 -2.3629 -5.9918 15.4098 -0.3191 -8.2052 3.0752 2.5460 -3.9593 -5.0100 13.3438 11.0515 4.1289 -7.4673 15.6786 9.0405 -3.8373 8.0493 3.6823 0.0000 -0.0000 0.0000 -64.8864 -16.9396 7.1790 71.2431 -58.6280 -43.8309 -0.0000 0.0000 -28.3549 18.4214 27.8199 8.8354 -7.1250 0.0000 -0.0000 -13.5803 58.5437 -4.5514 0.0000 -0.0000 0.0000 77.8806 -25.3548 -9.3307 -31.2683 41.9560 -12.2488 0.0000 0.0000 0.9520 -22.7332 -32.4587 12.6732 7.1250 -0.0000 -0.0000 11.8720 -64.1957 -5.5584
-6.0249 16.8638 -1.2291 -537.8020 122.3550 -179.9300 0.0000 0.0000 0.0000 -26.4691 -5.3735 -7.9834 6.0618 14.4880 45.2294 -0.3187 -22.2487 -13.1944 0.1110 2.1485 5.9163 0.0000 0.0000 0.0000 12.1049 26.3420 -30.9944 -3.3833 -11.2911 33.2679 0.0017 2.7676 -1.8360 -1.6428 8.0787 -22.9532 -0.4596 -5.8401 14.5144 -0.4840 -7.6870 3.8538 1.0988 -3.7465 -4.0051 13.6227 11.1867 3.3996 -7.8387 15.7702 8.6192 -3.9427 8.0667 3.7322 -0.0000 0.0000 0.0000 -64.1630 -17.3487 6.5416 71.1842 -58.6191 -43.7806 -0.0000 0.0000 -28.0534 18.2285 27.6821 8.6986 -7.1250 0.0000 -0.0000 -13.7049 58.3650 -4.5351 -0.0000 0.0000 0.0000 79.7349 -23.8310 -10.1250 -31.8524 42.4292 -12.6411 0.0000 0.0000 1.6957 -23.0250 -31.9967 12.6907 7.1250 -0.0000 -0.0000 11.1737 -63.8170 -5.1286
-6.1899 16.9077 -1.3914 -534.0160 124.6890 -176.4270 0.0000 0.0000 0.0000 -29.3437 -5.7323 -9.0243 5.9991 14.4275 44.9780 0.2336 -19.6309 -15.7111 0.0001 -0.0660 -0.1813 0.0000 0.0000 0.0000 10.1215 25.5386 -32.1254 -4.2123 -12.4377 37.2985 -0.0821 0.8698 -5.1735 -1.3334 7.3119 -20.6427 -3.3938 -6.1815 16.6629 -0.1785 -8.6999 2.2355 3.5595 -4.1293 -6.3827 13.3741 11.8734 4.9057 -9.0584 17.0418 9.2778 -4.2546 8.7081 3.9100 -0.0000 -0.0000 0.0000 -65.8958 -13.1370 4.4869 72.5651 -58.8197 -44.9608 -0.0000 0.0000 -27.5150 17.7796 27.6082 8.4527 -7.1250 0.0000 -0.0000 -14.1385 58.1928 -4.6234 -0.0000 -0.0000 0.0000 77.2074 -24.6723 -6.1819 -32.6251 43.0399 -13.1655 0.0000 0.0000 1.6503 -23.5866 -31.8212 12.9643 7.1250 -0.0000 -0.0000 10.3771 -63.7936 -4.7533
-6.3438 16.9686 -1.5463 -534.0740 127.6480 -176.5440 0.0000 0.0000 0.0000 -29.8682 -5.1978 -9.8862 5.8902 14.3211 44.5395 0.6264 -17.4100 -17.5314 0.0230 -0.9785 -2.6897 0.0000 0.0000 0.0000 10.6087 25.4565 -32.4032 -5.1025 -13.4983 41.2638 -0.1538 0.0349 -7.3949 -1.1579 6.8316 -19.2174 -3.0577 -6.0532 16.7888 -0.2866 -8.4756 2.3925 3.2244 -4.0300 -6.3647 13.1669 12.2476 4.8849 -9.6748 17.5781 9.0734 -4.3694 8.9490 3.9478 0.0000 -0.0000 0.0000 -66.1507 -12.0864 3.4104 72.7413 -58.8441 -45.1116 -0.0000 0.0000 -27.1763 17.7314 27.2969 8.3421 -7.1250 0.0000 -0.0000 -14.0072 57.8765 -4.4723 0.0000 -0.0000 0.0000 77.3657 -23.5682 -4.7351 -33.3476 43.5955 -13.6612 0.0000 0.0000 2.0338 -24.0923 -31.4621 13.1370 7.1250 -0.0000 -0.0000 9.5199 -63.5697 -4.3071
-6.4808 17.0271 -1.6981 -534.6980 130.8760 -177.0950 0.0000 0.0000 0.0000 -29.9955 -4.4582 -10.5796 5.6870 14.1180 43.7121 0.9361 -15.3673 -19.0262 0.0313 -1.1412 -3.1374 0.0000 0.0000 0.0000 11.5076 25.3114 -32.4555 -6.0742 -14.4998 45.2786 -0.2500 0.5062 -9.2771 -1.0899 6.6346 -18.6374 -2.3288 -5.8587 16.7842 -0.3104 -8.0867 2.5388 2.7153 -3.8596 -6.3356 12.7129 12.6128 5.0840 -10.0791 18.0987 8.8706 -4.4051 9.1882 3.9102 0.0000 0.0000 0.0000 -66.4645 -10.9926 2.4118 72.8637 -58.8608 -45.2163 -0.0000 0.0000 -27.1333 17.8809 27.1798 8.3833 -7.1250 0.0000 -0.0000 -13.7819 57.7939 -4.3709 0.0000 0.0000 0.0000 77.3363 -22.2825 -2.7228 -33.9860 44.0743 -14.1033 0.0000 0.0000 2.4445 -24.6362 -31.1131 13.3316 7.1250 -0.0000 -0.0000 8.6341 -63.3630 -3.8614
-6.6068 17.0673 -1.8427 -535.4090 134.3880 -177.6190 0.0000 0.0000 0.0000 -29.9644 -3.7415 -11.3841 5.5359 13.9630 43.0894 1.2431 -13.3162 -20.6828 0.0653 -1.6483 -4.5345 0.0000 0.0000 0.0000 12.4802 25.1487 -32.3607 -7.0747 -15.3945 49.1563 -0.3391 1.0977 -10.6697 -0.9696 6.2690 -17.5668 -1.5202 -5.5425 16.6776 -0.3239 -7.5270 2.6205 2.1291 -3.6074 -6.3260 12.2621 12.8018 5.7111 -10.5339 18.4068 8.4486 -4.5134 9.3391 3.7180 -0.0000 0.0000 0.0000 -66.8822 -9.8537 1.4712 73.1889 -58.9047 -45.4947 -0.0000 0.0000 -27.6018 17.9427 27.5829 8.5272 -7.1250 0.0000 -0.0000 -13.9503 58.2039 -4.5641 -0.0000 0.0000 0.0000 77.0440 -21.0472 0.0607 -34.6428 44.5554 -14.5622 0.0000 0.0000 2.5960 -24.7485 -30.7521 13.2630 7.1250 -0.0000 -0.0000 8.2657 -63.0265 -3.6302
-6.7223 17.1161 -1.9770 -535.8940 138.0520 -177.8580 0.0000 0.0000 0.0000 -29.9874 -3.1202 -12.2215 5.3969 13.8173 42.5104 1.4866 -11.2452 -22.0498 0.1120 -2.1582 -5.9431 0.0000 0.0000 0.0000 13.2269 24.9325 -32.2130 -8.1118 -16.2009 52.9643 -0.4194 0.7670 -11.9893 -0.9045 6.0608 -16.9610 -0.8228 -5.0896 16.5142 -0.4138 -6.8187 2.6196 1.4885 -3.2804 -6.3576 12.3794 12.9420 6.0123 -11.0627 18.6841 8.5267 -4.6815 9.4790 3.7861 -0.0000 0.0000 0.0000 -67.3454 -8.7634 0.6631 73.7043 -58.9724 -45.9362 -0.0000 0.0000 -28.3227 17.9100 27.8368 8.5819 -7.1250 0.0000 -0.0000 -14.1358 58.4460 -4.7090 -0.0000 0.0000 0.0000 76.5671 -19.9038 3.3075 -35.2706 45.0044 -15.0044 0.0000 0.0000 2.6243 -23.6059 -29.9744 12.3165 7.1250 -0.0000 -0.0000 9.1207 -61.9395 -3.7754
-6.8304 17.1492 -2.0982 -536.0960 141.6790 -177.7480 0.0000 0.0000 0.0000 -30.1237 -2.6636 -13.2132 5.2963 13.7099 42.0876 1.6435 -9.3537 -22.9878 0.1275 -2.3016 -6.3400 0.0000 0.0000 0.0000 13.5759 24.5624 -32.2076 -9.1868 -16.9265 56.7341 -0.4944 -0.7309 -13.5670 -0.8982 6.0401 -16.9008 -0.3562 -4.5818 16.2061 -0.5681 -6.0874 2.5492 0.8916 -2.9401 -6.3474 12.5700 12.9378 6.4463 -11.5541 18.7709 8.5056 -4.8780 9.5336 3.7843 0.0000 -0.0000 0.0000 -67.7808 -7.6865 -0.0925 74.3037 -59.0483 -46.4500 -0.0000 0.0000 -28.8761 17.6126 27.7018 8.3950 -7.1250 0.0000 -0.0000 -14.3710 58.2477 -4.7206 0.0000 -0.0000 0.0000 76.1148 -18.5568 6.7520 -35.7679 45.3527 -15.3571 0.0000 0.0000 3.0169 -22.2020 -29.1682 11.2501 7.1250 -0.0000 -0.0000 10.2360 -60.7737 -3.9591
